<?xml version="1.0" standalone="no"?>
<svg viewBox="0 0 200 200" xmlns="http://www.w3.org/2000/svg">
  <path fill="#38B764" d="M41.5,-61.8C55.3,-55.8,68.8,-46.7,73.8,-34.2C78.8,-21.6,75.3,-5.7,68.4,6.5C61.5,18.7,51.2,27.1,41.8,34C32.3,40.9,23.8,46.3,13.5,52.2C3.2,58.1,-8.8,64.4,-20.3,63.6C-31.9,62.8,-43.1,54.9,-53.2,45.1C-63.4,35.3,-72.6,23.5,-78.6,8.8C-84.5,-5.9,-87.3,-23.5,-81.7,-38C-76.2,-52.5,-62.3,-63.9,-47.3,-69.3C-32.2,-74.6,-16.1,-74,-1.1,-72.3C13.9,-70.6,27.8,-67.8,41.5,-61.8Z" transform="translate(100 100)" />
</svg>
